<svg xmlns="http://www.w3.org/2000/svg" width="640" height="360" viewBox="0 0 640 360" fill="none" role="img" aria-labelledby="title desc">
  <title id="title">D-care clinical workspace</title>
  <desc id="desc">Abstract illustration of a calm clinical dashboard with charts and care motifs.</desc>
  <defs>
    <linearGradient id="bg" x1="0" y1="0" x2="640" y2="360" gradientUnits="userSpaceOnUse">
      <stop stop-color="#e8f0f8"/>
      <stop offset="1" stop-color="#f0f7fc"/>
    </linearGradient>
    <linearGradient id="accent" x1="120" y1="60" x2="520" y2="300" gradientUnits="userSpaceOnUse">
      <stop stop-color="#1a6bb8" stop-opacity="0.9"/>
      <stop offset="1" stop-color="#2d7d8a" stop-opacity="0.85"/>
    </linearGradient>
    <filter id="s" x="-20%" y="-20%" width="140%" height="140%">
      <feDropShadow dx="0" dy="8" stdDeviation="12" flood-color="#1a3348" flood-opacity="0.08"/>
    </filter>
  </defs>
  <rect width="640" height="360" rx="20" fill="url(#bg)"/>
  <rect x="48" y="48" width="280" height="200" rx="14" fill="#fff" filter="url(#s)" stroke="rgba(26,58,95,0.1)"/>
  <rect x="72" y="80" width="120" height="10" rx="5" fill="rgba(26,107,184,0.2)"/>
  <rect x="72" y="100" width="180" height="8" rx="4" fill="rgba(26,51,72,0.08)"/>
  <rect x="72" y="118" width="160" height="8" rx="4" fill="rgba(26,51,72,0.06)"/>
  <path d="M72 190 L110 150 L148 170 L200 120 L248 155 L280 130" stroke="url(#accent)" stroke-width="4" stroke-linecap="round" stroke-linejoin="round" fill="none"/>
  <circle cx="110" cy="150" r="5" fill="#1a6bb8"/>
  <circle cx="200" cy="120" r="5" fill="#2d7d8a"/>
  <rect x="352" y="72" width="240" height="96" rx="12" fill="#fff" filter="url(#s)" stroke="rgba(26,58,95,0.1)"/>
  <rect x="376" y="100" width="88" height="40" rx="8" fill="rgba(26,107,184,0.12)"/>
  <rect x="480" y="100" width="88" height="40" rx="8" fill="rgba(45,125,138,0.12)"/>
  <rect x="352" y="200" width="240" height="112" rx="12" fill="url(#accent)" opacity="0.15"/>
  <rect x="376" y="228" width="192" height="12" rx="6" fill="#fff" opacity="0.7"/>
  <rect x="376" y="252" width="140" height="12" rx="6" fill="#fff" opacity="0.45"/>
  <circle cx="520" cy="248" r="28" fill="#1a6bb8" opacity="0.9"/>
  <path d="M508 248 L516 256 L536 232" stroke="#fff" stroke-width="4" stroke-linecap="round" stroke-linejoin="round" fill="none"/>
</svg>
